<svg width="194" height="193" viewBox="0 0 194 193" fill="none" xmlns="http://www.w3.org/2000/svg">
<path d="M193.158 0H0.157715V193H193.158V0Z" fill="white"/>
<path d="M11.4118 181.746H181.895V11.2626H11.4118V181.746ZM185.524 185.375H7.7832V7.63403H185.524V185.375Z" fill="#B2B2B2"/>
<mask id="mask0_225_469" style="mask-type:luminance" maskUnits="userSpaceOnUse" x="0" y="0" width="193" height="193">
<path d="M192.825 0.0787354H0V192.903H192.825V0.0787354Z" fill="white"/>
</mask>
<g mask="url(#mask0_225_469)">
<path d="M24.182 99.0241C24.182 99.1906 24.2521 99.3221 24.4099 99.4185C24.9007 99.7165 26.4258 99.9444 27.8719 99.9444C28.6608 99.9444 29.5899 99.8479 30.3524 99.3221C31.5093 98.5245 32.3683 96.7452 32.3683 94.2385C32.3683 90.1103 30.1858 87.6386 26.6536 87.6386C25.6632 87.6386 24.7692 87.7351 24.4449 87.8402C24.2784 87.9104 24.182 88.0418 24.182 88.2346V99.0328V99.0241ZM21.5438 96.1492C21.5438 90.9955 21.5438 90.0752 21.4737 89.0147C21.4036 87.8928 21.1406 87.3669 20.0538 87.1303C19.7908 87.0602 19.2299 87.0339 18.9319 87.0339C18.8004 87.0339 18.6689 86.9725 18.6689 86.8323C18.6689 86.6307 18.8355 86.5693 19.1948 86.5693C20.6848 86.5693 22.7621 86.6657 22.9286 86.6657C23.288 86.6657 25.8034 86.5693 26.8202 86.5693C28.8974 86.5693 31.1149 86.7709 32.8591 88.0243C33.683 88.6203 35.138 90.233 35.138 92.5119C35.138 94.9572 34.1125 97.3938 31.1412 100.137C33.8495 103.608 36.0933 106.544 38.004 108.586C39.7832 110.471 41.2032 110.83 42.0271 110.962C42.6581 111.058 43.1139 111.058 43.3154 111.058C43.482 111.058 43.6135 111.154 43.6135 111.26C43.6135 111.461 43.4119 111.523 42.8246 111.523H40.4844C38.6351 111.523 37.8112 111.356 36.9522 110.9C35.5323 110.138 34.3754 108.525 32.4998 106.045C31.1149 104.23 29.5635 102.013 28.9062 101.163C28.7747 101.031 28.6783 100.961 28.4767 100.961L24.4186 100.891C24.2521 100.891 24.1907 100.987 24.1907 101.154V101.943C24.1907 105.107 24.1907 107.719 24.3573 109.104C24.4537 110.059 24.6553 110.786 25.6457 110.918C26.1102 110.988 26.8377 111.049 27.1357 111.049C27.3373 111.049 27.3987 111.146 27.3987 111.251C27.3987 111.417 27.2321 111.514 26.8727 111.514C25.0584 111.514 22.9812 111.417 22.8147 111.417C22.7796 111.417 20.7024 111.514 19.712 111.514C19.3526 111.514 19.1861 111.444 19.1861 111.251C19.1861 111.154 19.2562 111.049 19.449 111.049C19.747 111.049 20.1414 110.979 20.4394 110.918C21.0968 110.786 21.2633 110.059 21.3948 109.104C21.5613 107.719 21.5613 105.107 21.5613 101.943V96.1317L21.5438 96.1492Z" fill="#1D1D1B"/>
<path d="M56.857 110.743C59.8283 110.743 65.9636 109.025 65.9636 99.4185C65.9636 91.4952 61.143 87.2355 55.928 87.2355C50.4149 87.2355 46.2867 90.8641 46.2867 98.095C46.2867 105.79 50.9057 110.734 56.8482 110.734M56.1559 86.1048C63.5796 86.1048 69.1277 90.794 69.1277 98.4807C69.1277 106.167 63.9127 111.978 55.9543 111.978C46.909 111.978 43.1489 104.949 43.1489 99.0066C43.1489 93.6601 47.0405 86.0961 56.1559 86.0961" fill="#1D1D1B"/>
<path d="M99.9621 107.272C100.094 108.464 100.322 110.313 101.741 110.769C102.697 111.067 103.556 111.067 103.889 111.067C104.055 111.067 104.152 111.102 104.152 111.233C104.152 111.435 103.854 111.531 103.459 111.531C102.732 111.531 99.1646 111.435 97.9463 111.33C97.1837 111.26 97.026 111.163 97.026 110.997C97.026 110.865 97.0961 110.795 97.2539 110.769C97.4204 110.734 97.4554 110.173 97.3853 109.577L95.7989 92.547H95.7025L87.6126 109.708C86.9202 111.163 86.8237 111.461 86.5257 111.461C86.2979 111.461 86.1313 111.128 85.5003 109.945C84.6413 108.332 81.8016 102.618 81.635 102.285C81.337 101.689 77.6383 93.7653 77.2789 92.88H77.1475L75.824 108.201C75.7889 108.727 75.7889 109.323 75.7889 109.884C75.7889 110.383 76.1483 110.813 76.6479 110.909C77.2088 111.041 77.7084 111.076 77.9013 111.076C78.0327 111.076 78.1642 111.146 78.1642 111.242C78.1642 111.47 77.9626 111.54 77.5682 111.54C76.3499 111.54 74.7635 111.444 74.5005 111.444C74.2025 111.444 72.6161 111.54 71.7309 111.54C71.3978 111.54 71.1699 111.479 71.1699 111.242C71.1699 111.146 71.3365 111.076 71.503 111.076C71.7659 111.076 72.0026 111.076 72.4934 110.979C73.5802 110.778 73.6854 109.489 73.8168 108.236L76.1921 86.7096C76.2622 86.3503 76.3587 86.1136 76.5515 86.1136C76.7443 86.1136 76.8846 86.2451 77.0423 86.6132L87.1481 107.377L96.8507 86.6483C96.9821 86.3503 97.1136 86.1224 97.3503 86.1224C97.5869 86.1224 97.6833 86.3854 97.7447 87.0164L99.9534 107.281L99.9621 107.272Z" fill="#1D1D1B"/>
<path d="M120.305 100.611C120.472 100.611 120.472 100.514 120.437 100.383L117.299 91.4689C117.132 90.9693 116.966 90.9693 116.808 91.4689L113.898 100.383C113.828 100.549 113.898 100.611 113.995 100.611H120.296H120.305ZM116.869 87.4021C117.264 86.3152 117.395 86.1136 117.597 86.1136C117.798 86.1136 117.93 86.2802 118.324 87.3057C118.824 88.559 124.004 102.197 126.02 107.21C127.212 110.147 128.167 110.681 128.86 110.874C129.359 111.041 129.85 111.076 130.183 111.076C130.385 111.076 130.516 111.111 130.516 111.277C130.516 111.479 130.218 111.54 129.859 111.54C129.359 111.54 126.958 111.54 124.679 111.47C124.048 111.435 123.688 111.435 123.688 111.242C123.688 111.111 123.785 111.041 123.916 111.014C124.118 110.953 124.311 110.655 124.118 110.12L121.05 101.995C120.98 101.864 120.919 101.794 120.752 101.794H113.653C113.486 101.794 113.39 101.89 113.32 102.057L111.339 107.903C111.041 108.727 110.874 109.524 110.874 110.112C110.874 110.769 111.567 111.067 112.128 111.067H112.461C112.689 111.067 112.794 111.128 112.794 111.269C112.794 111.47 112.592 111.531 112.294 111.531C111.505 111.531 110.086 111.435 109.717 111.435C109.349 111.435 107.535 111.531 105.984 111.531C105.554 111.531 105.361 111.461 105.361 111.269C105.361 111.137 105.493 111.067 105.659 111.067C105.887 111.067 106.352 111.032 106.615 110.997C108.131 110.804 108.797 109.542 109.384 107.894L116.878 87.3933L116.869 87.4021Z" fill="#1D1D1B"/>
<path d="M136.117 107.044C136.187 109.752 136.511 110.611 137.405 110.874C138.036 111.041 138.755 111.076 139.053 111.076C139.219 111.076 139.316 111.146 139.316 111.277C139.316 111.479 139.114 111.54 138.72 111.54C136.835 111.54 135.521 111.444 135.223 111.444C134.925 111.444 133.54 111.54 132.05 111.54C131.717 111.54 131.524 111.505 131.524 111.277C131.524 111.146 131.62 111.076 131.787 111.076C132.05 111.076 132.646 111.041 133.137 110.874C133.961 110.646 134.127 109.682 134.127 106.684L134.162 87.7701C134.162 86.4817 134.259 86.1223 134.521 86.1223C134.784 86.1223 135.345 86.8498 135.678 87.1829C136.178 87.7438 141.095 93.0552 146.179 98.5069C149.448 102.004 153.041 106.036 154.102 107.123L153.743 90.3557C153.708 88.2083 153.48 87.4809 152.454 87.2179C151.858 87.0864 151.104 87.0514 150.833 87.0514C150.605 87.0514 150.57 86.955 150.57 86.8235C150.57 86.6219 150.833 86.5956 151.227 86.5956C152.708 86.5956 154.295 86.692 154.663 86.692C155.031 86.692 156.118 86.5956 157.468 86.5956C157.827 86.5956 158.064 86.6307 158.064 86.8235C158.064 86.955 157.932 87.0514 157.704 87.0514C157.538 87.0514 157.31 87.0514 156.915 87.1478C155.829 87.3757 155.697 88.1032 155.697 90.084L155.627 109.428C155.627 111.61 155.557 111.768 155.329 111.768C155.066 111.768 154.672 111.409 152.919 109.656C152.559 109.323 147.8 104.476 144.303 100.707C140.473 96.5787 136.748 92.4242 135.687 91.2322L136.117 107.044Z" fill="#1D1D1B"/>
<path d="M162.893 96.1492C162.893 90.9955 162.893 90.0752 162.823 89.0147C162.753 87.8928 162.49 87.3669 161.403 87.1303C161.14 87.0602 160.579 87.0339 160.281 87.0339C160.15 87.0339 160.018 86.9725 160.018 86.8323C160.018 86.6307 160.185 86.5693 160.544 86.5693C162.034 86.5693 164.111 86.6657 164.278 86.6657C164.506 86.6657 171.079 86.6657 171.833 86.6307C172.464 86.5956 172.99 86.5343 173.253 86.4641C173.419 86.4291 173.551 86.2976 173.717 86.2976C173.814 86.2976 173.849 86.4291 173.849 86.5956C173.849 86.8235 173.682 87.2179 173.586 88.147C173.551 88.48 173.489 89.9262 173.419 90.3206C173.384 90.4872 173.323 90.6888 173.191 90.6888C172.99 90.6888 172.929 90.5222 172.929 90.2593C172.929 90.0314 172.893 89.4705 172.727 89.0673C172.499 88.5414 172.166 88.147 170.387 87.9454C169.826 87.8753 166.224 87.849 165.864 87.849C165.733 87.849 165.663 87.9454 165.663 88.182V97.2974C165.663 97.5253 165.698 97.6304 165.864 97.6304C166.294 97.6304 170.352 97.6304 171.114 97.5603C171.903 97.4902 172.368 97.4289 172.666 97.0958C172.893 96.8329 173.025 96.6663 173.165 96.6663C173.262 96.6663 173.332 96.7364 173.332 96.9293C173.332 97.1221 173.165 97.6918 173.069 98.7786C173.007 99.436 172.937 100.663 172.937 100.891C172.937 101.154 172.937 101.522 172.709 101.522C172.543 101.522 172.482 101.391 172.482 101.224C172.482 100.891 172.482 100.567 172.35 100.137C172.219 99.6726 171.921 99.1117 170.632 98.9802C169.738 98.8838 166.478 98.8137 165.908 98.8137C165.741 98.8137 165.68 98.9101 165.68 99.0416V101.951C165.68 103.073 165.645 106.904 165.68 107.596C165.777 109.875 166.276 110.304 169.51 110.304C170.369 110.304 171.824 110.304 172.674 109.945C173.533 109.586 173.928 108.919 174.164 107.57C174.235 107.21 174.296 107.07 174.462 107.07C174.664 107.07 174.664 107.333 174.664 107.57C174.664 107.833 174.401 110.076 174.234 110.769C174.007 111.628 173.744 111.628 172.455 111.628C167.468 111.628 165.259 111.426 164.304 111.426C164.138 111.426 162.06 111.523 161.07 111.523C160.71 111.523 160.544 111.452 160.544 111.26C160.544 111.163 160.614 111.058 160.807 111.058C161.105 111.058 161.499 110.988 161.797 110.927C162.455 110.795 162.621 110.068 162.753 109.112C162.919 107.727 162.919 105.116 162.919 101.951V96.1404L162.893 96.1492Z" fill="#1D1D1B"/>
<path d="M24.182 99.0241C24.182 99.1906 24.2521 99.3221 24.4099 99.4185C24.9007 99.7165 26.4258 99.9444 27.8719 99.9444C28.6608 99.9444 29.5899 99.8479 30.3524 99.3221C31.5093 98.5245 32.3683 96.7452 32.3683 94.2385C32.3683 90.1103 30.1858 87.6386 26.6536 87.6386C25.6632 87.6386 24.7692 87.7351 24.4449 87.8402C24.2784 87.9104 24.182 88.0418 24.182 88.2346V99.0328V99.0241ZM21.5438 96.1492C21.5438 90.9955 21.5438 90.0752 21.4737 89.0147C21.4036 87.8928 21.1406 87.3669 20.0538 87.1303C19.7908 87.0602 19.2299 87.0339 18.9319 87.0339C18.8004 87.0339 18.6689 86.9725 18.6689 86.8323C18.6689 86.6307 18.8355 86.5693 19.1948 86.5693C20.6848 86.5693 22.7621 86.6657 22.9286 86.6657C23.288 86.6657 25.8034 86.5693 26.8202 86.5693C28.8974 86.5693 31.1149 86.7709 32.8591 88.0243C33.683 88.6203 35.138 90.233 35.138 92.5119C35.138 94.9572 34.1125 97.3938 31.1412 100.137C33.8495 103.608 36.0933 106.544 38.004 108.586C39.7832 110.471 41.2032 110.83 42.0271 110.962C42.6581 111.058 43.1139 111.058 43.3154 111.058C43.482 111.058 43.6135 111.154 43.6135 111.26C43.6135 111.461 43.4119 111.523 42.8246 111.523H40.4844C38.6351 111.523 37.8112 111.356 36.9522 110.9C35.5323 110.138 34.3754 108.525 32.4998 106.045C31.1149 104.23 29.5635 102.013 28.9062 101.163C28.7747 101.031 28.6783 100.961 28.4767 100.961L24.4186 100.891C24.2521 100.891 24.1907 100.987 24.1907 101.154V101.943C24.1907 105.107 24.1907 107.719 24.3573 109.104C24.4537 110.059 24.6553 110.786 25.6457 110.918C26.1102 110.988 26.8377 111.049 27.1357 111.049C27.3373 111.049 27.3987 111.146 27.3987 111.251C27.3987 111.417 27.2321 111.514 26.8727 111.514C25.0584 111.514 22.9812 111.417 22.8147 111.417C22.7796 111.417 20.7024 111.514 19.712 111.514C19.3526 111.514 19.1861 111.444 19.1861 111.251C19.1861 111.154 19.2562 111.049 19.449 111.049C19.747 111.049 20.1414 110.979 20.4394 110.918C21.0968 110.786 21.2633 110.059 21.3948 109.104C21.5613 107.719 21.5613 105.107 21.5613 101.943V96.1317L21.5438 96.1492Z" fill="#1D1D1B"/>
<path d="M56.857 110.743C59.8283 110.743 65.9636 109.025 65.9636 99.4185C65.9636 91.4952 61.143 87.2355 55.928 87.2355C50.4149 87.2355 46.2867 90.8641 46.2867 98.095C46.2867 105.79 50.9057 110.734 56.8482 110.734M56.1559 86.1048C63.5796 86.1048 69.1277 90.794 69.1277 98.4807C69.1277 106.167 63.9127 111.978 55.9543 111.978C46.909 111.978 43.1489 104.949 43.1489 99.0066C43.1489 93.6601 47.0405 86.0961 56.1559 86.0961" fill="#1D1D1B"/>
<path d="M99.9621 107.272C100.094 108.464 100.322 110.313 101.741 110.769C102.697 111.067 103.556 111.067 103.889 111.067C104.055 111.067 104.152 111.102 104.152 111.233C104.152 111.435 103.854 111.531 103.459 111.531C102.732 111.531 99.1646 111.435 97.9463 111.33C97.1837 111.26 97.026 111.163 97.026 110.997C97.026 110.865 97.0961 110.795 97.2539 110.769C97.4204 110.734 97.4554 110.173 97.3853 109.577L95.7989 92.547H95.7025L87.6126 109.708C86.9202 111.163 86.8237 111.461 86.5257 111.461C86.2979 111.461 86.1313 111.128 85.5003 109.945C84.6413 108.332 81.8016 102.618 81.635 102.285C81.337 101.689 77.6383 93.7653 77.2789 92.88H77.1475L75.824 108.201C75.7889 108.727 75.7889 109.323 75.7889 109.884C75.7889 110.383 76.1483 110.813 76.6479 110.909C77.2088 111.041 77.7084 111.076 77.9013 111.076C78.0327 111.076 78.1642 111.146 78.1642 111.242C78.1642 111.47 77.9626 111.54 77.5682 111.54C76.3499 111.54 74.7635 111.444 74.5005 111.444C74.2025 111.444 72.6161 111.54 71.7309 111.54C71.3978 111.54 71.1699 111.479 71.1699 111.242C71.1699 111.146 71.3365 111.076 71.503 111.076C71.7659 111.076 72.0026 111.076 72.4934 110.979C73.5802 110.778 73.6854 109.489 73.8168 108.236L76.1921 86.7096C76.2622 86.3503 76.3587 86.1136 76.5515 86.1136C76.7443 86.1136 76.8846 86.2451 77.0423 86.6132L87.1481 107.377L96.8507 86.6483C96.9821 86.3503 97.1136 86.1224 97.3503 86.1224C97.5869 86.1224 97.6833 86.3854 97.7447 87.0164L99.9534 107.281L99.9621 107.272Z" fill="#1D1D1B"/>
<path d="M120.305 100.611C120.472 100.611 120.472 100.514 120.437 100.383L117.299 91.4689C117.132 90.9693 116.966 90.9693 116.808 91.4689L113.898 100.383C113.828 100.549 113.898 100.611 113.995 100.611H120.296H120.305ZM116.869 87.4021C117.264 86.3152 117.395 86.1136 117.597 86.1136C117.798 86.1136 117.93 86.2802 118.324 87.3057C118.824 88.559 124.004 102.197 126.02 107.21C127.212 110.147 128.167 110.681 128.86 110.874C129.359 111.041 129.85 111.076 130.183 111.076C130.385 111.076 130.516 111.111 130.516 111.277C130.516 111.479 130.218 111.54 129.859 111.54C129.359 111.54 126.958 111.54 124.679 111.47C124.048 111.435 123.688 111.435 123.688 111.242C123.688 111.111 123.785 111.041 123.916 111.014C124.118 110.953 124.311 110.655 124.118 110.12L121.05 101.995C120.98 101.864 120.919 101.794 120.752 101.794H113.653C113.486 101.794 113.39 101.89 113.32 102.057L111.339 107.903C111.041 108.727 110.874 109.524 110.874 110.112C110.874 110.769 111.567 111.067 112.128 111.067H112.461C112.689 111.067 112.794 111.128 112.794 111.269C112.794 111.47 112.592 111.531 112.294 111.531C111.505 111.531 110.086 111.435 109.717 111.435C109.349 111.435 107.535 111.531 105.984 111.531C105.554 111.531 105.361 111.461 105.361 111.269C105.361 111.137 105.493 111.067 105.659 111.067C105.887 111.067 106.352 111.032 106.615 110.997C108.131 110.804 108.797 109.542 109.384 107.894L116.878 87.3933L116.869 87.4021Z" fill="#1D1D1B"/>
<path d="M136.117 107.044C136.187 109.752 136.511 110.611 137.405 110.874C138.036 111.041 138.755 111.076 139.053 111.076C139.219 111.076 139.316 111.146 139.316 111.277C139.316 111.479 139.114 111.54 138.72 111.54C136.835 111.54 135.521 111.444 135.223 111.444C134.925 111.444 133.54 111.54 132.05 111.54C131.717 111.54 131.524 111.505 131.524 111.277C131.524 111.146 131.62 111.076 131.787 111.076C132.05 111.076 132.646 111.041 133.137 110.874C133.961 110.646 134.127 109.682 134.127 106.684L134.162 87.7701C134.162 86.4817 134.259 86.1223 134.521 86.1223C134.784 86.1223 135.345 86.8498 135.678 87.1829C136.178 87.7438 141.095 93.0552 146.179 98.5069C149.448 102.004 153.041 106.036 154.102 107.123L153.743 90.3557C153.708 88.2083 153.48 87.4809 152.454 87.2179C151.858 87.0864 151.104 87.0514 150.833 87.0514C150.605 87.0514 150.57 86.955 150.57 86.8235C150.57 86.6219 150.833 86.5956 151.227 86.5956C152.708 86.5956 154.295 86.692 154.663 86.692C155.031 86.692 156.118 86.5956 157.468 86.5956C157.827 86.5956 158.064 86.6307 158.064 86.8235C158.064 86.955 157.932 87.0514 157.704 87.0514C157.538 87.0514 157.31 87.0514 156.915 87.1478C155.829 87.3757 155.697 88.1032 155.697 90.084L155.627 109.428C155.627 111.61 155.557 111.768 155.329 111.768C155.066 111.768 154.672 111.409 152.919 109.656C152.559 109.323 147.8 104.476 144.303 100.707C140.473 96.5787 136.748 92.4242 135.687 91.2322L136.117 107.044Z" fill="#1D1D1B"/>
<path d="M162.893 96.1492C162.893 90.9955 162.893 90.0752 162.823 89.0147C162.753 87.8928 162.49 87.3669 161.403 87.1303C161.14 87.0602 160.579 87.0339 160.281 87.0339C160.15 87.0339 160.018 86.9725 160.018 86.8323C160.018 86.6307 160.185 86.5693 160.544 86.5693C162.034 86.5693 164.111 86.6657 164.278 86.6657C164.506 86.6657 171.079 86.6657 171.833 86.6307C172.464 86.5956 172.99 86.5343 173.253 86.4641C173.419 86.4291 173.551 86.2976 173.717 86.2976C173.814 86.2976 173.849 86.4291 173.849 86.5956C173.849 86.8235 173.682 87.2179 173.586 88.147C173.551 88.48 173.489 89.9262 173.419 90.3206C173.384 90.4872 173.323 90.6888 173.191 90.6888C172.99 90.6888 172.929 90.5222 172.929 90.2593C172.929 90.0314 172.893 89.4705 172.727 89.0673C172.499 88.5414 172.166 88.147 170.387 87.9454C169.826 87.8753 166.224 87.849 165.864 87.849C165.733 87.849 165.663 87.9454 165.663 88.182V97.2974C165.663 97.5253 165.698 97.6304 165.864 97.6304C166.294 97.6304 170.352 97.6304 171.114 97.5603C171.903 97.4902 172.368 97.4289 172.666 97.0958C172.893 96.8329 173.025 96.6663 173.165 96.6663C173.262 96.6663 173.332 96.7364 173.332 96.9293C173.332 97.1221 173.165 97.6918 173.069 98.7786C173.007 99.436 172.937 100.663 172.937 100.891C172.937 101.154 172.937 101.522 172.709 101.522C172.543 101.522 172.482 101.391 172.482 101.224C172.482 100.891 172.482 100.567 172.35 100.137C172.219 99.6726 171.921 99.1117 170.632 98.9802C169.738 98.8838 166.478 98.8137 165.908 98.8137C165.741 98.8137 165.68 98.9101 165.68 99.0416V101.951C165.68 103.073 165.645 106.904 165.68 107.596C165.777 109.875 166.276 110.304 169.51 110.304C170.369 110.304 171.824 110.304 172.674 109.945C173.533 109.586 173.928 108.919 174.164 107.57C174.235 107.21 174.296 107.07 174.462 107.07C174.664 107.07 174.664 107.333 174.664 107.57C174.664 107.833 174.401 110.076 174.234 110.769C174.007 111.628 173.744 111.628 172.455 111.628C167.468 111.628 165.259 111.426 164.304 111.426C164.138 111.426 162.06 111.523 161.07 111.523C160.71 111.523 160.544 111.452 160.544 111.26C160.544 111.163 160.614 111.058 160.807 111.058C161.105 111.058 161.499 110.988 161.797 110.927C162.455 110.795 162.621 110.068 162.753 109.112C162.919 107.727 162.919 105.116 162.919 101.951V96.1404L162.893 96.1492Z" fill="#1D1D1B"/>
</g>
<path d="M18.9321 135.389H30.3088V133.978H20.5887V118.026H18.9321V135.389Z" fill="#1D1D1B"/>
<mask id="mask1_225_469" style="mask-type:luminance" maskUnits="userSpaceOnUse" x="0" y="0" width="193" height="193">
<path d="M192.825 0.0787354H0V192.027H192.825V0.0787354Z" fill="white"/>
</mask>
<g mask="url(#mask1_225_469)">
<path d="M40.3094 130.525C40.3357 132.979 38.2672 134.46 35.9358 134.46C34.4983 134.46 33.1398 133.513 33.1398 131.98C33.1398 129.526 36.374 129.552 38.9771 129.087C39.389 129.008 40.0727 128.894 40.2655 128.526H40.3181V130.516L40.3094 130.525ZM33.6744 126.686C33.7183 124.644 35.1294 123.767 37.0313 123.767C38.8281 123.767 40.3094 124.275 40.3094 126.344C40.3094 127.729 39.5994 127.904 38.3373 128.044C35.033 128.43 31.606 128.553 31.606 132.076C31.606 134.609 33.4991 135.748 35.813 135.748C38.1269 135.748 39.3102 134.828 40.3883 133.198H40.4321C40.4321 134.513 40.6775 135.389 42.2288 135.389C42.6408 135.389 42.8862 135.363 43.228 135.293V134.004C43.1053 134.057 42.9125 134.101 42.7372 134.101C42.1324 134.101 41.8432 133.759 41.8432 133.18V126.519C41.8432 123.162 39.4329 122.487 37.2241 122.487C34.3581 122.487 32.2896 123.75 32.1406 126.695H33.6744V126.686Z" fill="#1D1D1B"/>
<path d="M55.6475 122.847H54.1137V129.438C54.1137 131.988 52.9743 134.469 50.3449 134.469C47.917 134.469 47.0668 133.277 46.9879 131.015V122.847H45.4541V130.989C45.4541 133.908 46.6899 135.757 49.854 135.757C51.7297 135.757 53.3775 134.811 54.1838 133.136H54.2364V135.398H55.6475V122.855V122.847Z" fill="#1D1D1B"/>
<path d="M59.1274 135.389H60.6613V128.702C60.6613 126.098 62.5544 124.056 65.3329 124.197V122.671C63.0715 122.575 61.3712 123.767 60.5911 125.783H60.5386V122.838H59.1274V135.38V135.389Z" fill="#1D1D1B"/>
<path d="M75.3948 130.525C75.4211 132.979 73.3526 134.46 71.0212 134.46C69.5838 134.46 68.2252 133.513 68.2252 131.98C68.2252 129.526 71.4594 129.552 74.0625 129.087C74.4745 129.008 75.1581 128.894 75.3509 128.526H75.3948V130.516V130.525ZM68.7599 126.686C68.8125 124.644 70.2236 123.767 72.1168 123.767C74.01 123.767 75.3948 124.275 75.3948 126.344C75.3948 127.729 74.6936 127.904 73.4227 128.044C70.1184 128.43 66.6914 128.553 66.6914 132.076C66.6914 134.609 68.5846 135.748 70.8985 135.748C73.2124 135.748 74.3956 134.828 75.4649 133.198H75.5175C75.5175 134.513 75.7629 135.389 77.3143 135.389C77.7262 135.389 77.9716 135.363 78.3134 135.293V134.004C78.1907 134.057 77.9979 134.101 77.8314 134.101C77.2266 134.101 76.9286 133.759 76.9286 133.18V126.519C76.9286 123.162 74.5183 122.487 72.3096 122.487C69.4435 122.487 67.375 123.75 67.226 126.695H68.7599V126.686Z" fill="#1D1D1B"/>
<path d="M89.8655 127.045H95.5539C98.4462 127.045 100.12 128.184 100.12 130.402C100.12 133.172 98.008 134.004 95.5539 133.978H89.8655V127.045ZM88.209 135.38H95.5539C101.198 135.38 101.777 132.094 101.777 130.446C101.777 128.184 100.339 126.51 98.1044 126.212V126.169C99.9012 125.783 101.119 124.1 101.119 122.277C101.119 119.043 98.4725 118.026 95.5539 118.026H88.209V135.389V135.38ZM89.8655 119.428H95.5539C98.1307 119.428 99.4717 120.524 99.4717 122.689C99.4717 124.319 98.2096 125.634 95.5539 125.634H89.8655V119.437V119.428Z" fill="#1D1D1B"/>
</g>
<path d="M104.756 135.389H106.29V122.847H104.756V135.389ZM104.756 120.48H106.29V118.026H104.756V120.48Z" fill="#1D1D1B"/>
<mask id="mask2_225_469" style="mask-type:luminance" maskUnits="userSpaceOnUse" x="0" y="0" width="193" height="193">
<path d="M192.825 0.0787354H0V192.903H192.825V0.0787354Z" fill="white"/>
</mask>
<g mask="url(#mask2_225_469)">
<path d="M118.079 130.525C118.096 132.979 116.037 134.46 113.705 134.46C112.268 134.46 110.909 133.513 110.909 131.98C110.909 129.526 114.144 129.552 116.747 129.087C117.159 129.008 117.842 128.894 118.035 128.526H118.079V130.516V130.525ZM111.444 126.686C111.488 124.644 112.899 123.767 114.801 123.767C116.598 123.767 118.079 124.275 118.079 126.344C118.079 127.729 117.378 127.904 116.107 128.044C112.803 128.43 109.375 128.553 109.375 132.076C109.375 134.609 111.277 135.748 113.583 135.748C115.888 135.748 117.08 134.828 118.158 133.198H118.202C118.202 134.513 118.447 135.389 120.007 135.389C120.419 135.389 120.665 135.363 121.006 135.293V134.004C120.884 134.057 120.691 134.101 120.516 134.101C119.911 134.101 119.621 133.759 119.621 133.18V126.519C119.621 123.162 117.211 122.487 115.003 122.487C112.136 122.487 110.068 123.75 109.919 126.695H111.453L111.444 126.686Z" fill="#1D1D1B"/>
<path d="M129.018 133.952C126.195 133.952 124.881 131.498 124.881 128.973C124.881 126.449 126.099 123.767 129.018 123.767C131.936 123.767 133.049 126.519 133.049 128.973C133.049 131.427 131.664 133.952 129.018 133.952ZM134.583 122.847H133.049V125.012H133.005C132.392 123.627 130.841 122.479 129.018 122.479C125.398 122.479 123.355 125.345 123.355 128.798C123.355 132.251 125.012 135.24 129.018 135.24C130.814 135.24 132.296 134.197 133.005 132.663H133.049V134.364C133.049 137.423 131.831 139.105 129.018 139.105C127.317 139.105 125.687 138.448 125.345 136.607H123.811C124.03 139.281 126.511 140.394 129.009 140.394C133.119 140.394 134.548 138.115 134.574 134.364V122.838L134.583 122.847Z" fill="#1D1D1B"/>
</g>
<path d="M138.851 135.389H140.385V122.847H138.851V135.389ZM138.851 120.48H140.385V118.026H138.851V120.48Z" fill="#1D1D1B"/>
<mask id="mask3_225_469" style="mask-type:luminance" maskUnits="userSpaceOnUse" x="0" y="0" width="193" height="193">
<path d="M192.825 0.0787354H0V192.903H192.825V0.0787354Z" fill="white"/>
</mask>
<g mask="url(#mask3_225_469)">
<path d="M149.202 122.479C145.363 122.479 143.269 125.52 143.269 129.114C143.269 132.707 145.355 135.748 149.202 135.748C153.05 135.748 155.136 132.707 155.136 129.114C155.136 125.52 153.041 122.479 149.202 122.479ZM149.202 123.767C152.147 123.767 153.602 126.44 153.602 129.114C153.602 131.787 152.147 134.46 149.202 134.46C146.257 134.46 144.802 131.787 144.802 129.114C144.802 126.44 146.257 123.767 149.202 123.767Z" fill="#1D1D1B"/>
<path d="M160.202 119.069H158.668V122.838H156.477V124.126H158.668V132.707C158.642 134.846 159.352 135.529 161.394 135.529C161.859 135.529 162.297 135.485 162.753 135.485V134.171C162.314 134.215 161.876 134.241 161.438 134.241C160.342 134.171 160.193 133.584 160.193 132.584V124.126H162.744V122.838H160.193V119.069H160.202Z" fill="#1D1D1B"/>
<path d="M167.74 119.069H166.206V122.838H164.015V124.126H166.206V132.707C166.18 134.846 166.889 135.529 168.932 135.529C169.396 135.529 169.834 135.485 170.29 135.485V134.171C169.852 134.215 169.414 134.241 168.975 134.241C167.88 134.171 167.74 133.584 167.74 132.584V124.126H170.29V122.838H167.74V119.069Z" fill="#1D1D1B"/>
</g>
<path d="M173.113 135.389H174.647V122.847H173.113V135.389ZM173.113 120.48H174.647V118.026H173.113V120.48Z" fill="#1D1D1B"/>
<mask id="mask4_225_469" style="mask-type:luminance" maskUnits="userSpaceOnUse" x="48" y="50" width="109" height="45">
<path d="M156.889 50.0378H48.2061V94.7381H156.889V50.0378Z" fill="white"/>
</mask>
<g mask="url(#mask4_225_469)">
<path d="M63.869 69.9516C63.9566 69.9516 64.0004 69.9341 64.018 69.8991C64.0267 69.864 64.018 69.8202 64.0005 69.7501L60.9153 60.9502C60.8276 60.7311 60.7487 60.6259 60.6698 60.6259C60.5909 60.6259 60.5121 60.7486 60.4244 60.9853L57.5671 69.7238C57.5671 69.7238 57.5321 69.8026 57.5321 69.8202V69.8815C57.5321 69.8815 57.5496 69.9166 57.5759 69.9341C57.6109 69.9429 57.6373 69.9516 57.6548 69.9516H63.8602H63.869ZM53.1146 77.13L60.4858 56.9623C60.6348 56.5503 60.7575 56.2611 60.8451 56.0858C60.9328 55.9105 61.0204 55.8053 61.1081 55.7615C61.1081 55.744 61.1169 55.7264 61.1431 55.7264H61.2746C61.2746 55.7264 61.3097 55.7352 61.3097 55.7615C61.3973 55.7878 61.485 55.8754 61.5726 56.042C61.6603 56.1997 61.7829 56.489 61.9319 56.9009C62.0809 57.269 62.5718 58.5399 63.3957 60.7048C64.2196 62.8697 65.1136 65.2099 66.0865 67.7166C66.7351 69.4258 67.3661 71.0648 67.9884 72.6337C68.602 74.2026 69.1103 75.491 69.4959 76.4814C70.0832 77.9363 70.6003 78.8654 71.0736 79.2949C71.5382 79.7156 71.9413 79.9873 72.2919 80.0925C72.5285 80.1801 72.7652 80.2327 73.0106 80.2502C73.2473 80.2678 73.4401 80.2853 73.5978 80.2853C73.703 80.2853 73.7907 80.2941 73.8433 80.3204C73.8959 80.3467 73.9222 80.3992 73.9222 80.4869C73.9222 80.5745 73.852 80.6359 73.7293 80.6622C73.5979 80.6972 73.4488 80.7148 73.2735 80.7148H71.5557C70.6442 80.7148 69.6625 80.6972 68.602 80.6534H67.9183C67.6992 80.6271 67.5239 80.6184 67.4012 80.6008C67.2697 80.5921 67.2083 80.5395 67.2083 80.4518C67.2083 80.3817 67.2259 80.3379 67.2697 80.3028C67.3135 80.2678 67.3661 80.2415 67.4362 80.2239C67.4538 80.2239 67.4801 80.2152 67.4976 80.1889C67.5414 80.1714 67.5852 80.1188 67.6466 80.0399C67.6992 79.961 67.7167 79.8646 67.6992 79.7331V79.6017C67.6992 79.6017 67.6992 79.514 67.6816 79.4702C67.6729 79.4264 67.6553 79.3825 67.629 79.3387L64.6052 71.3189C64.6052 71.3189 64.5526 71.2401 64.5088 71.205C64.465 71.1699 64.4036 71.1524 64.316 71.1524H57.3304C57.2428 71.1699 57.1815 71.205 57.1376 71.2488C57.0938 71.2927 57.05 71.354 57.0062 71.4417L55.0604 77.1387C54.9114 77.5682 54.7974 77.9714 54.7186 78.3308C54.6397 78.6989 54.6046 79.0319 54.6046 79.3387C54.6046 79.6192 54.7098 79.8295 54.9114 79.9698C55.1218 80.11 55.3408 80.2064 55.5775 80.2502C55.6213 80.2678 55.6652 80.2853 55.709 80.2853H55.8405L56.1648 80.2502C56.2699 80.2678 56.3576 80.3028 56.4102 80.3291C56.4627 80.3642 56.4891 80.408 56.4891 80.4781C56.4891 80.5658 56.4452 80.6271 56.3576 80.6534C56.2699 80.6885 56.1472 80.706 55.9982 80.706C55.8492 80.706 55.6827 80.706 55.5074 80.6885C55.3321 80.6797 55.1481 80.6709 54.9552 80.6709H54.5608C54.3242 80.6446 54.0963 80.6359 53.8947 80.6184C53.6931 80.6096 53.5441 80.6008 53.4564 80.6008C53.3688 80.6008 53.2023 80.6008 52.9568 80.6184C52.7114 80.6271 52.4135 80.6446 52.0629 80.6709C51.8262 80.6709 51.572 80.6709 51.3178 80.6885C51.0549 80.6972 50.7832 80.706 50.5027 80.706H49.8191C49.6 80.706 49.4422 80.6885 49.3458 80.6534C49.2494 80.6184 49.1968 80.5658 49.1968 80.4781C49.1968 80.408 49.223 80.3642 49.2756 80.3291C49.3282 80.2941 49.3984 80.2765 49.486 80.2765H49.7139C49.8015 80.2765 49.8892 80.2678 49.9769 80.2415C50.0382 80.2415 50.1083 80.2415 50.1872 80.2239C50.2661 80.2152 50.3362 80.2064 50.3975 80.2064C51.1513 80.1012 51.7298 79.7594 52.1155 79.1985C52.5099 78.6375 52.8429 77.9539 53.1234 77.1563V77.1212L53.1146 77.13Z" fill="#1D1D1B"/>
<path d="M77.9274 67.48C77.9274 71.2927 78.9267 74.3253 80.9338 76.5778C82.9409 78.8303 85.4038 79.9522 88.3225 79.9522C88.8221 79.9522 89.3918 79.8909 90.0403 79.7769C90.6889 79.6542 91.3551 79.4439 92.0212 79.1459C93.3447 78.5148 94.5454 77.4192 95.641 75.8503C96.7366 74.2814 97.28 71.9325 97.28 68.821C97.28 64.9207 96.2809 61.9494 94.2737 59.9072C92.2754 57.865 89.979 56.8396 87.4021 56.8396C84.6938 56.8396 82.4413 57.7336 80.627 59.5216C78.8215 61.3096 77.9187 63.9741 77.9187 67.5326V67.4975L77.9274 67.48ZM92.6435 80.0486C92.2491 80.2853 91.7582 80.4781 91.1447 80.6359C90.5399 80.7849 89.9177 80.9164 89.2954 81.0303C88.9886 81.0741 88.6993 81.1092 88.4013 81.1267C88.1121 81.1442 87.8229 81.1618 87.5424 81.1618C83.6421 81.1618 80.6971 80.0837 78.7075 77.9276C76.7179 75.7714 75.4909 73.405 75.0351 70.8281C74.9737 70.4162 74.9212 70.013 74.8861 69.6098C74.851 69.2066 74.8423 68.8122 74.8423 68.4266C74.8423 67.8218 74.8861 67.1995 74.9913 66.5597C75.0877 65.9199 75.2454 65.28 75.4645 64.6227C76.157 62.3964 77.498 60.3542 79.4788 58.5049C81.4597 56.6555 84.1855 55.7264 87.6476 55.7264C91.3025 55.7264 94.3526 56.8133 96.7717 58.9869C99.1995 61.1606 100.409 64.1318 100.409 67.9007C100.409 69.9341 100.032 71.7221 99.2697 73.256C98.5159 74.7898 97.6744 76.0519 96.7717 77.0248C96.4036 77.4192 96.0355 77.761 95.6674 78.0678C95.2992 78.3746 94.9662 78.62 94.6594 78.8128L101.321 82.2223C104.87 84.0629 107.833 85.1585 110.217 85.5179C112.601 85.8772 114.187 86.0525 114.994 86.0525C115.598 86.0525 116.317 85.9999 117.15 85.8947C117.982 85.7896 118.841 85.6143 119.735 85.3776C120.016 85.29 120.296 85.2023 120.568 85.0972C120.84 85.0007 121.111 84.8956 121.392 84.7904C121.497 84.7729 121.594 84.7466 121.672 84.7115C121.751 84.6764 121.804 84.6589 121.848 84.6589C121.909 84.6589 121.962 84.6764 121.997 84.7203C122.032 84.7641 122.049 84.8079 122.049 84.8517C122.049 84.9219 122.032 84.9744 121.997 85.027C121.962 85.0796 121.892 85.1322 121.786 85.176C121.523 85.3075 121.225 85.439 120.892 85.5704C120.559 85.7019 120.191 85.8422 119.805 85.9912C118.789 86.3418 117.579 86.666 116.186 86.964C114.792 87.2708 113.223 87.4198 111.497 87.4198C109.524 87.4198 107.465 87.0605 105.309 86.333C103.152 85.6055 100.76 84.5187 98.1127 83.0725L92.661 80.0486H92.6435Z" fill="#1D1D1B"/>
<path d="M109.244 60.0737L115.476 76.7004C115.87 75.8327 116.335 74.7284 116.869 73.3698C117.413 72.0201 117.974 70.5914 118.561 69.1014C118.605 68.9699 118.649 68.8472 118.71 68.7245C118.763 68.6018 118.815 68.4791 118.859 68.3476C119.657 66.2704 120.41 64.3071 121.103 62.4577C121.795 60.6083 122.242 59.355 122.435 58.7064C122.523 58.4697 122.593 58.2418 122.645 58.0227C122.698 57.8036 122.724 57.6196 122.724 57.4706V57.3566C122.724 57.3566 122.715 57.2865 122.689 57.2427C122.663 57.1375 122.628 57.0411 122.558 56.9534C122.496 56.8658 122.409 56.7869 122.295 56.7255C122.207 56.708 122.119 56.6817 122.032 56.6642C121.944 56.6467 121.848 56.6291 121.743 56.6291C121.637 56.6116 121.524 56.5941 121.401 56.5941H121.059C120.971 56.5941 120.892 56.5853 120.814 56.559C120.735 56.5415 120.7 56.4801 120.7 56.4013C120.7 56.2961 120.752 56.226 120.857 56.1909C120.963 56.1558 121.147 56.1383 121.41 56.1383H121.997C122.233 56.1383 122.47 56.1383 122.698 56.1558C122.926 56.1646 123.136 56.1734 123.329 56.1734C123.636 56.1997 123.899 56.2084 124.127 56.226C124.355 56.2347 124.512 56.2435 124.6 56.2435C124.644 56.2435 124.758 56.2435 124.942 56.226C125.126 56.2172 125.336 56.1997 125.573 56.1734H126.292C126.441 56.1558 126.59 56.1383 126.73 56.1383H127.133C127.308 56.1383 127.44 56.1558 127.536 56.1909C127.633 56.226 127.685 56.2785 127.685 56.3662C127.685 56.4538 127.65 56.5152 127.589 56.5415C127.519 56.5765 127.431 56.5853 127.299 56.5853C127.212 56.5853 127.054 56.5941 126.809 56.6204C126.572 56.6379 126.327 56.708 126.064 56.8132C126.002 56.8395 125.941 56.857 125.888 56.8833C125.836 56.9008 125.783 56.9359 125.739 56.9797C125.52 57.1287 125.284 57.4004 125.012 57.7948C124.74 58.1893 124.39 58.9343 123.951 60.0386C123.776 60.4944 123.338 61.5812 122.619 63.2904C121.9 65.0082 121.138 66.8576 120.314 68.856C119.315 71.2225 118.465 73.2559 117.746 74.9562C117.027 76.6566 116.493 77.91 116.124 78.7163C115.756 79.4964 115.493 80.0573 115.344 80.4079C115.195 80.7585 115.064 80.9864 114.95 81.0916C114.906 81.1091 114.871 81.1266 114.854 81.1442C114.827 81.1529 114.801 81.1617 114.757 81.1617C114.696 81.1617 114.634 81.1442 114.582 81.1091C114.529 81.074 114.477 81.039 114.433 80.9952C114.328 80.8637 114.214 80.6621 114.091 80.3816C113.968 80.1012 113.802 79.698 113.591 79.1809L105.633 59.2147C105.545 58.9956 105.458 58.794 105.37 58.61C105.282 58.4259 105.195 58.2594 105.107 58.1016C104.87 57.6721 104.608 57.3654 104.327 57.1901C104.047 57.0148 103.696 56.8658 103.284 56.7343C103.24 56.7343 103.205 56.7343 103.17 56.7168C103.135 56.708 103.1 56.6905 103.056 56.6642C102.837 56.6467 102.644 56.6291 102.469 56.6204C102.294 56.6116 102.162 56.6028 102.075 56.6028C101.969 56.6028 101.899 56.5853 101.864 56.5415C101.829 56.4977 101.82 56.4451 101.82 56.3837C101.82 56.2785 101.899 56.2084 102.048 56.1909C102.197 56.1734 102.399 56.1558 102.635 56.1558H103.451C103.714 56.1558 103.968 56.1558 104.231 56.1734C104.494 56.1821 104.739 56.1909 104.976 56.1909C105.326 56.2172 105.633 56.226 105.905 56.2435C106.176 56.2522 106.352 56.261 106.439 56.261C106.527 56.261 106.676 56.261 106.878 56.2435C107.079 56.2347 107.325 56.2172 107.614 56.1909C107.807 56.1909 108.008 56.1909 108.21 56.1734C108.411 56.1646 108.622 56.1558 108.841 56.1558H109.454C109.761 56.1558 109.98 56.1734 110.121 56.2084C110.261 56.2435 110.331 56.2961 110.331 56.3837C110.331 56.4714 110.305 56.5327 110.252 56.559C110.199 56.5941 110.121 56.6028 110.007 56.6028H109.726C109.63 56.6028 109.533 56.6116 109.446 56.6379C109.314 56.6379 109.192 56.6467 109.078 56.673C108.955 56.6905 108.858 56.7255 108.771 56.7694C108.639 56.8307 108.543 56.9096 108.482 56.9973C108.42 57.0849 108.376 57.1725 108.35 57.2602V57.418C108.35 57.6371 108.438 57.9789 108.613 58.461C108.788 58.9343 108.99 59.4864 109.227 60.1175V60.0824L109.244 60.0737Z" fill="#1D1D1B"/>
<path d="M132.523 71.2664V60.6523C132.523 59.8196 132.497 59.1535 132.462 58.6539V58.5575C132.436 57.9965 132.339 57.5758 132.155 57.2866C131.971 57.0061 131.612 56.8133 131.068 56.6993C131.007 56.6818 130.919 56.6643 130.806 56.6468C130.7 56.638 130.586 56.6292 130.481 56.6292C130.394 56.6117 130.306 56.5942 130.201 56.5942H129.955C129.894 56.5942 129.833 56.5766 129.78 56.5416C129.727 56.5065 129.701 56.4627 129.701 56.3926C129.701 56.2874 129.745 56.2173 129.833 56.1822C129.92 56.1472 130.052 56.1296 130.227 56.1296H131.331C131.551 56.1559 131.761 56.1647 131.962 56.1647H132.558C132.909 56.1822 133.198 56.1998 133.453 56.2173C133.698 56.2261 133.847 56.2348 133.891 56.2348H137.625C138.466 56.2348 139.255 56.2348 139.982 56.2173C140.71 56.2085 141.157 56.1998 141.332 56.1998C141.639 56.1822 141.911 56.1472 142.165 56.1209C142.41 56.0858 142.603 56.0595 142.734 56.042C142.778 56.042 142.813 56.0332 142.848 56.0069C142.883 55.9806 142.91 55.9719 142.927 55.9719C142.927 55.9543 142.936 55.9368 142.962 55.9368C143.006 55.9193 143.041 55.9018 143.076 55.8842C143.111 55.8755 143.146 55.8667 143.19 55.8667C143.234 55.8667 143.269 55.893 143.287 55.9456C143.304 55.9982 143.322 56.0683 143.322 56.1559C143.322 56.2436 143.304 56.3488 143.269 56.4802C143.234 56.6117 143.199 56.7958 143.155 57.0324C143.138 57.1201 143.12 57.2165 143.111 57.3216C143.103 57.4268 143.085 57.5495 143.059 57.681C143.059 57.7687 143.05 57.9089 143.024 58.1192C142.997 58.3208 142.989 58.5487 142.989 58.7854C142.962 59.0045 142.954 59.2061 142.945 59.3989C142.936 59.5917 142.918 59.732 142.892 59.8196V59.8897C142.875 59.9511 142.84 60.0212 142.813 60.0825C142.778 60.1439 142.734 60.179 142.664 60.179C142.577 60.179 142.515 60.1439 142.471 60.065C142.428 59.9861 142.41 59.8897 142.41 59.7582C142.41 59.6706 142.41 59.5654 142.393 59.434C142.384 59.3025 142.366 59.1622 142.349 59.0132C142.331 58.9519 142.305 58.8818 142.287 58.8029C142.261 58.724 142.244 58.6539 142.217 58.5925C142.112 58.3296 141.919 58.1017 141.648 57.9089C141.376 57.7161 140.797 57.5758 139.912 57.4882C139.781 57.4706 139.509 57.4531 139.079 57.4356C138.659 57.4268 138.194 57.4181 137.703 57.4181C137.186 57.4005 136.704 57.383 136.257 57.383H135.46C135.398 57.383 135.346 57.4093 135.311 57.4619C135.276 57.5145 135.258 57.5934 135.258 57.7073V66.6736C135.258 66.8051 135.267 66.8928 135.293 66.9541C135.311 67.0067 135.372 67.033 135.451 67.033H138.08C138.624 67.033 139.132 67.033 139.623 67.0155C140.105 67.0067 140.438 66.9892 140.613 66.9716C141.008 66.9278 141.314 66.884 141.551 66.8226C141.788 66.7701 141.981 66.6649 142.138 66.5159C142.244 66.3844 142.34 66.2792 142.41 66.2091C142.489 66.1302 142.559 66.0952 142.62 66.0952C142.664 66.0952 142.699 66.1127 142.734 66.1478C142.769 66.1828 142.787 66.2529 142.787 66.3581C142.787 66.4195 142.769 66.5422 142.734 66.7175C142.699 66.8928 142.664 67.1206 142.62 67.4011C142.594 67.5063 142.585 67.629 142.568 67.7605C142.559 67.8919 142.542 68.0322 142.515 68.1812C142.489 68.2864 142.48 68.4178 142.463 68.5668C142.454 68.7158 142.445 68.8736 142.445 69.0226C142.428 69.3031 142.41 69.566 142.393 69.8027C142.384 70.0393 142.375 70.1971 142.375 70.2584V70.425C142.375 70.5564 142.358 70.6616 142.322 70.7493C142.287 70.8369 142.235 70.8807 142.147 70.8807C142.059 70.8807 141.998 70.8544 141.972 70.8019C141.946 70.7493 141.919 70.6791 141.919 70.5915C141.919 70.4162 141.919 70.2497 141.902 70.0831C141.893 69.9254 141.849 69.7325 141.788 69.5134C141.762 69.4696 141.753 69.4258 141.735 69.382C141.726 69.3381 141.709 69.2943 141.691 69.2505C141.604 69.0577 141.446 68.8736 141.218 68.6983C140.99 68.523 140.622 68.4178 140.096 68.374C139.903 68.3565 139.597 68.3302 139.167 68.3127C138.746 68.2951 138.308 68.2776 137.852 68.2776C137.309 68.2601 136.818 68.2425 136.362 68.225C135.907 68.2162 135.6 68.2075 135.451 68.2075C135.363 68.2075 135.302 68.2338 135.276 68.2688C135.241 68.3127 135.223 68.3652 135.223 68.4266V76.8408C135.267 77.9627 135.512 78.6901 135.95 79.0144C136.397 79.3387 137.405 79.5053 138.983 79.5053H139.711C139.982 79.5053 140.254 79.4965 140.543 79.4702C140.824 79.4527 141.104 79.4088 141.376 79.3563C141.648 79.3037 141.893 79.2335 142.103 79.1459C142.533 78.9706 142.857 78.7077 143.076 78.3483C143.295 77.989 143.453 77.4806 143.567 76.8057C143.611 76.6304 143.646 76.5077 143.681 76.4288C143.716 76.3499 143.769 76.3149 143.856 76.3149C143.944 76.3149 143.997 76.3587 144.023 76.4464C144.04 76.534 144.058 76.6304 144.058 76.7356V76.8057C144.058 76.8671 144.04 77.0687 144.005 77.4017C143.97 77.7348 143.926 78.0854 143.856 78.4535C143.856 78.5587 143.848 78.6726 143.821 78.7953C143.795 78.918 143.786 79.032 143.786 79.1371C143.742 79.2861 143.707 79.4439 143.69 79.5929C143.663 79.7419 143.646 79.8646 143.628 79.9523C143.523 80.3642 143.357 80.6008 143.138 80.671C142.918 80.7323 142.498 80.7674 141.867 80.7674C140.631 80.7674 139.57 80.7586 138.668 80.7323C137.765 80.7148 137.002 80.6885 136.38 80.671C135.731 80.6447 135.205 80.6271 134.802 80.6096C134.399 80.5921 134.084 80.5746 133.847 80.5746C133.803 80.5746 133.654 80.5746 133.409 80.5921C133.163 80.6009 132.874 80.6184 132.55 80.6447H131.998C131.761 80.6447 131.524 80.6447 131.288 80.6622C131.051 80.671 130.841 80.6797 130.674 80.6797C130.508 80.6797 130.367 80.6622 130.28 80.6271C130.192 80.5921 130.148 80.5395 130.148 80.4518C130.148 80.408 130.166 80.3642 130.21 80.3204C130.253 80.2766 130.315 80.259 130.402 80.259C130.473 80.259 130.543 80.259 130.63 80.2415C130.718 80.2327 130.806 80.224 130.893 80.224C130.981 80.2064 131.069 80.1889 131.156 80.1714C131.244 80.1626 131.314 80.1451 131.384 80.1188C131.708 80.0574 131.927 79.8558 132.05 79.5316C132.173 79.2073 132.26 78.8041 132.331 78.3308C132.418 77.6384 132.462 76.6742 132.48 75.4559C132.488 74.2289 132.497 72.8353 132.497 71.2751V71.2401L132.523 71.2664Z" fill="#1D1D1B"/>
</g>
</svg>
